<svg width="255" height="57" viewBox="0 0 255 57" fill="none" xmlns="http://www.w3.org/2000/svg">
<rect x="0.986328" y="51" width="14" height="6" rx="2" fill="#E5E5E5"/>
<rect x="16.9863" y="49" width="14" height="8" rx="2" fill="#E5E5E5"/>
<rect x="32.9863" y="49" width="14" height="8" rx="2" fill="#E5E5E5"/>
<rect x="48.9863" y="45" width="14" height="12" rx="2" fill="#E5E5E5"/>
<rect x="64.9863" y="36" width="14" height="21" rx="2" fill="#E5E5E5"/>
<rect x="80.9863" y="22" width="14" height="35" rx="2" fill="#E5E5E5"/>
<rect x="96.9863" y="19" width="14" height="38" rx="2" fill="#E5E5E5"/>
<rect x="112.986" y="1" width="14" height="56" rx="2" fill="#E5E5E5"/>
<rect x="128.986" y="9" width="14" height="48" rx="2" fill="#E5E5E5"/>
<rect x="144.986" y="25" width="14" height="32" rx="2" fill="#E5E5E5"/>
<rect x="160.986" y="34" width="14" height="23" rx="2" fill="#E5E5E5"/>
<rect x="176.986" y="9" width="14" height="48" rx="2" fill="#E5E5E5"/>
<rect x="192.986" y="34" width="14" height="23" rx="2" fill="#E5E5E5"/>
<rect x="208.986" y="40" width="14" height="17" rx="2" fill="#E5E5E5"/>
<rect x="224.986" y="45" width="14" height="12" rx="2" fill="#E5E5E5"/>
<rect x="240.986" y="51" width="14" height="6" rx="2" fill="#E5E5E5"/>
</svg>
